<svg width="42" height="42" viewBox="0 0 42 42" fill="none" xmlns="http://www.w3.org/2000/svg">
<path d="M8.75 22.3292C8.75 19.9531 8.75 18.7651 9.23031 17.7208C9.71061 16.6765 10.6126 15.9033 12.4167 14.357L14.1667 12.857C17.4275 10.062 19.0579 8.66455 21 8.66455C22.9421 8.66455 24.5725 10.062 27.8333 12.857L29.5833 14.357C31.3874 15.9033 32.2894 16.6765 32.7697 17.7208C33.25 18.7651 33.25 19.9531 33.25 22.3292V29.7499C33.25 33.0497 33.25 34.6996 32.2249 35.7248C31.1997 36.7499 29.5498 36.7499 26.25 36.7499H15.75C12.4502 36.7499 10.8003 36.7499 9.77513 35.7248C8.75 34.6996 8.75 33.0497 8.75 29.7499V22.3292Z" stroke="#222222"/>
<path d="M25.375 36.75V27.25C25.375 26.6977 24.9273 26.25 24.375 26.25H17.625C17.0727 26.25 16.625 26.6977 16.625 27.25V36.75" stroke="#222222" stroke-linecap="round" stroke-linejoin="round"/>
</svg>
